# xmcd
#
# Track frame offsets: 
#        150
#        10975
#        21718
#        30980
#        40325
#        58648
#        75155
#        87235
#        92218
#        107800
#        130525
#        149913
#        158918
#        172898
#        187690
#        200298
#        217775
#        226755
#        244725
#        259945
#        269895
#        284908
#        296880
#        301448
#        308853
#
# Disc length: 4243 seconds
#
# Revision: 0
# Processed by: cddbd v1.5.2PL0 Copyright (c) Steve Scherf et al.
# Submitted via: ExactAudioCopy v0.95b4
#
DISCID=67109119
DTITLE=Various Artist - Tennessee Blues Vol. 1
DYEAR=1989
DGENRE=
TTITLE0=Stack's Blues
TTITLE1=Jimmy's Blues
TTITLE2=Eh Lordy, Lord!(Doggone My Soul!)
TTITLE3=Bricks In My Pillow
TTITLE4=Baby Please Come Back To Me
TTITLE5=Forgive Me Baby
TTITLE6=Goin' To St. Louis
TTITLE7=Blues In The Morning
TTITLE8=Aberdeen Blues
TTITLE9=Please!
TTITLE10=I Ain't Got A Little Red
TTITLE11=All Night Long
TTITLE12=Cross The River
TTITLE13=Stop And Listen
TTITLE14=Fishing In The Dark
TTITLE15=Blues Jumped To Rabbit
TTITLE16=Dewey's Blues
TTITLE17=Big Leg Woman
TTITLE18=It Was A Dream
TTITLE19=Memphis Boogie
TTITLE20=So Long Blues
TTITLE21=You May Be Old
TTITLE22=I Can't
TTITLE23=I Had A Dream Last Night
TTITLE24=Rains All Night
EXTD=Laura Dukes -  John Williams - Bukka White - Dewey Corley - Mose 
EXTD=Winson
EXTT0=
EXTT1=
EXTT2=
EXTT3=
EXTT4=
EXTT5=
EXTT6=
EXTT7=
EXTT8=
EXTT9=
EXTT10=
EXTT11=
EXTT12=
EXTT13=
EXTT14=
EXTT15=
EXTT16=
EXTT17=
EXTT18=
EXTT19=
EXTT20=
EXTT21=
EXTT22=
EXTT23=
EXTT24=
PLAYORDER=
